<svg xmlns="http://www.w3.org/2000/svg" xmlns:xlink="http://www.w3.org/1999/xlink" width="173.5" height="173.5" viewBox="0 0 173.5 173.5">
  <defs>
    <filter id="Trazado_896985" x="0" y="0" width="173.5" height="173.5" filterUnits="userSpaceOnUse">
      <feOffset dy="3" input="SourceAlpha"/>
      <feGaussianBlur stdDeviation="3" result="blur"/>
      <feFlood flood-opacity="0.161"/>
      <feComposite operator="in" in2="blur"/>
      <feComposite in="SourceGraphic"/>
    </filter>
  </defs>
  <g id="Grupo_1176698" data-name="Grupo 1176698" transform="translate(-271.051 -4563)">
    <g id="Grupo_1111318" data-name="Grupo 1111318" transform="translate(280.051 4569)">
      <g id="Grupo_1109826" data-name="Grupo 1109826" transform="translate(0 0)">
        <g id="Grupo_1098742" data-name="Grupo 1098742">
          <g transform="matrix(1, 0, 0, 1, -9, -6)" filter="url(#Trazado_896985)">
            <g id="Trazado_896985-2" data-name="Trazado 896985" transform="translate(9 6)" fill="#fd9826" opacity="0.859">
              <path d="M 77.74990081787109 154 C 67.45556640625 154 57.46996307373047 151.9841613769531 48.07046508789062 148.0085144042969 C 43.55267333984375 146.0976715087891 39.19512939453125 143.7324523925781 35.11890029907227 140.9786071777344 C 31.08102607727051 138.2506713867188 27.28392219543457 135.1177673339844 23.83308792114258 131.6669311523438 C 20.38225555419922 128.2161102294922 17.24933815002441 124.4189987182617 14.52140045166016 120.381103515625 C 11.76754665374756 116.3048782348633 9.402359008789062 111.9473571777344 7.49148416519165 107.4295654296875 C 3.515838384628296 98.03004455566406 1.500005006790161 88.04444122314453 1.500005006790161 77.75010681152344 C 1.500005006790161 67.45555877685547 3.515838384628296 57.4699592590332 7.49148416519165 48.07045745849609 C 9.402359008789062 43.55266571044922 11.76754665374756 39.19512557983398 14.52140045166016 35.118896484375 C 17.24933815002441 31.08102035522461 20.38225555419922 27.28391647338867 23.83308792114258 23.83308410644531 C 27.28392219543457 20.38224983215332 31.08102607727051 17.24933242797852 35.11890029907227 14.52139568328857 C 39.19512939453125 11.76754188537598 43.55267333984375 9.40235424041748 48.07046508789062 7.491479396820068 C 57.46996307373047 3.515833377838135 67.45556640625 1.5 77.74990081787109 1.5 C 88.04423522949219 1.5 98.02983856201172 3.515833377838135 107.4293365478516 7.491479396820068 C 111.9471282958984 9.40235424041748 116.3046722412109 11.76754188537598 120.3808975219727 14.52139568328857 C 124.4187774658203 17.24933242797852 128.2158813476562 20.38224983215332 131.6667175292969 23.83308410644531 C 135.1175537109375 27.28391647338867 138.2504577636719 31.08102035522461 140.9783935546875 35.118896484375 C 143.7322540283203 39.19512557983398 146.0974426269531 43.55266571044922 148.0083160400391 48.07045745849609 C 151.9839630126953 57.4699592590332 153.9998016357422 67.45555877685547 153.9998016357422 77.74989318847656 C 153.9998016357422 88.04444122314453 151.9839630126953 98.03004455566406 148.0083160400391 107.4295654296875 C 146.0974426269531 111.9473571777344 143.7322540283203 116.3048782348633 140.9783935546875 120.381103515625 C 138.2504577636719 124.4189987182617 135.1175537109375 128.2161102294922 131.6667175292969 131.6669311523438 C 128.2158813476562 135.1177673339844 124.4187774658203 138.2506713867188 120.3808975219727 140.9786071777344 C 116.3046722412109 143.7324523925781 111.9471282958984 146.0976715087891 107.4293365478516 148.0085144042969 C 98.02983856201172 151.9841613769531 88.04423522949219 154 77.74990081787109 154 Z" stroke="none"/>
              <path d="M 77.74990081787109 3 C 67.65740203857422 3 57.86840057373047 4.9759521484375 48.65479278564453 8.87298583984375 C 44.22618103027344 10.74612426757812 39.95457458496094 13.064697265625 35.95859527587891 15.76432800292969 C 31.99983215332031 18.43882751464844 28.27707672119141 21.51040649414062 24.89372253417969 24.89373779296875 C 21.51040649414062 28.27706146240234 18.43881225585938 31.99982452392578 15.76431274414062 35.95861053466797 C 13.06471252441406 39.95456695556641 10.74612426757812 44.2261962890625 8.872970581054688 48.65478515625 C 4.975936889648438 57.86839294433594 2.999984741210938 67.65739440917969 2.999984741210938 77.75010681152344 C 2.999984741210938 87.84260559082031 4.975936889648438 97.63160705566406 8.872970581054688 106.84521484375 C 10.74612426757812 111.2738037109375 13.06471252441406 115.5454330444336 15.76431274414062 119.541389465332 C 18.43881225585938 123.5001754760742 21.51040649414062 127.2229309082031 24.89372253417969 130.6062622070312 C 28.27707672119141 133.9895935058594 31.99983215332031 137.0611724853516 35.95859527587891 139.7356719970703 C 39.95457458496094 142.435302734375 44.22618103027344 144.7538757324219 48.65479278564453 146.6270141601562 C 57.86840057373047 150.5240478515625 67.65740203857422 152.5 77.74990081787109 152.5 C 87.84239959716797 152.5 97.63140106201172 150.5240478515625 106.8450088500977 146.6270141601562 C 111.2736206054688 144.7538757324219 115.5452270507812 142.435302734375 119.5411834716797 139.7356719970703 C 123.4999694824219 137.0611724853516 127.2227249145508 133.9895935058594 130.6060485839844 130.6062622070312 C 133.9893798828125 127.2229309082031 137.0609741210938 123.5001754760742 139.7354736328125 119.541389465332 C 142.4350891113281 115.5454330444336 144.753662109375 111.2738265991211 146.6268157958984 106.84521484375 C 150.5238342285156 97.63160705566406 152.4997863769531 87.84260559082031 152.4997863769531 77.74989318847656 C 152.4997863769531 67.65739440917969 150.5238342285156 57.86839294433594 146.6268157958984 48.65478515625 C 144.753662109375 44.22617340087891 142.4350891113281 39.95456695556641 139.7354736328125 35.95861053466797 C 137.0609741210938 31.99982452392578 133.9893798828125 28.27706146240234 130.6060485839844 24.89373779296875 C 127.2227249145508 21.51040649414062 123.4999694824219 18.43882751464844 119.5411834716797 15.76432800292969 C 115.5452270507812 13.064697265625 111.2736206054688 10.74612426757812 106.8450088500977 8.87298583984375 C 97.63140106201172 4.9759521484375 87.84239959716797 3 77.74990081787109 3 M 77.74990081787109 0 C 120.6899871826172 0 155.4997863769531 34.80980682373047 155.4997863769531 77.74989318847656 L 155.4997863769531 77.75010681152344 C 155.4997863769531 120.6902008056641 120.6899871826172 155.5 77.74990081787109 155.5 C 34.809814453125 155.5 -1.52587890625e-05 120.6902008056641 -1.52587890625e-05 77.75010681152344 L -1.52587890625e-05 77.74989318847656 C -1.52587890625e-05 34.80980682373047 34.809814453125 0 77.74990081787109 0 Z" stroke="none" fill="#fff"/>
            </g>
          </g>
        </g>
      </g>
    </g>
  </g>
</svg>
